<?xml version="1.0" encoding="UTF-8"?><svg version="1.1" width="74px" height="74px" viewBox="0 0 74.0 74.0" xmlns="http://www.w3.org/2000/svg" xmlns:xlink="http://www.w3.org/1999/xlink"><defs><clipPath id="i0"><path d="M1440,0 L1440,8759 L0,8759 L0,0 L1440,0 Z"></path></clipPath></defs><g transform="translate(-79.0 -1820.0)"><g clip-path="url(#i0)"><g transform="translate(0.0 1616.9999999999995)"><g transform="translate(49.5 100.00000000000023)"><g transform="translate(0.0 73.16591971681987)"><g transform="translate(0.5 0.0)"><g transform="translate(30.0 31.0)"><path d="M36,72 C55.882251,72 72,55.882251 72,36 C72,16.117749 55.882251,0 36,0 C16.117749,0 0,16.117749 0,36 C0,55.882251 16.117749,72 36,72 Z" stroke="#B49442" stroke-width="1" fill="none" stroke-miterlimit="10"></path><g transform="translate(19.0 19.0)"><path d="M34,19.2028366 C34,16.0383001 31.4280698,13.4730045 28.2558951,13.4730045 C27.5114608,13.4730045 26.803074,13.6190014 26.1503969,13.8755854 C25.8374395,10.3820112 22.8979347,7.64293577 19.3133991,7.64293577 C15.686262,7.64293577 12.7227255,10.449562 12.4703934,14.0041498 C11.7385211,13.6669407 10.9258152,13.4730045 10.0666846,13.4730045 C6.89450983,13.4730045 4.32257961,16.0383001 4.32257961,19.2028366 C4.32257961,22.3673731 6.89450983,24.9326687 10.0666846,24.9326687 L10.1682728,24.9326687 C10.1682728,24.9326687 23.734126,24.8373349 28.662248,24.8373349 C32.5231473,24.8373349 34,22.0209029 34,19.2028366 Z M10.0667938,13.4732769 C10.9259244,13.4732769 11.7380842,13.6666683 12.4699565,14.0038774 C12.6529245,11.4331342 14.2575818,9.25952416 16.5023542,8.25007571 C15.4449626,6.5830966 13.5852424,5.47286673 11.4611743,5.47286673 C8.16556441,5.47286673 5.49423064,8.13785424 5.49423064,11.4244179 C5.49423064,12.6441455 5.86344382,13.7772554 6.49427402,14.7207874 C7.47520132,13.9417743 8.71556096,13.4732769 10.0667938,13.4732769 Z M11.3369745,0 L11.3369745,2.88834092 M3.19118155,3.35253468 L5.23878537,5.39485646 M19.3003455,3.35253468 L17.2527417,5.39485646 M12.1343329,24.8710014 L8.7229343,28.2735999 M19.2524461,24.8710014 L15.8410475,28.2735999 M26.3309618,24.8710014 L22.9195631,28.2735999 M12.1343329,30.5974015 L8.7229343,34 M19.2524461,30.5974015 L15.8410475,34 M26.3309618,30.5974015 L22.9195631,34 M2.89581101,11.4238732 L0,11.4238732" stroke="#B49442" stroke-width="1" fill="none" stroke-miterlimit="10"></path></g></g></g></g></g></g></g></g></svg>