<?xml version="1.0" encoding="UTF-8"?><svg version="1.1" width="74px" height="74px" viewBox="0 0 74.0 74.0" xmlns="http://www.w3.org/2000/svg" xmlns:xlink="http://www.w3.org/1999/xlink"><defs><clipPath id="i0"><path d="M1440,0 L1440,8759 L0,8759 L0,0 L1440,0 Z"></path></clipPath></defs><g transform="translate(-422.0 -1820.0)"><g clip-path="url(#i0)"><g transform="translate(0.0 1616.9999999999995)"><g transform="translate(49.5 100.00000000000023)"><g transform="translate(0.0 73.16591971681987)"><g transform="translate(343.5 0.0)"><g transform="translate(30.0 31.0)"><path d="M36,72 C55.882251,72 72,55.882251 72,36 C72,16.117749 55.882251,0 36,0 C16.117749,0 0,16.117749 0,36 C0,55.882251 16.117749,72 36,72 Z" stroke="#B49442" stroke-width="1" fill="none" stroke-miterlimit="10"></path><g transform="translate(25.999999999999556 25.029867676770202)"><path d="M18.1418403,8.86068189 L17.822462,8.86068189 L17.822462,8.78753888 C17.822462,7.76736624 16.9956779,6.94096513 15.9758882,6.94096513 C14.9560985,6.94096513 14.1293145,7.76736624 14.1293145,8.78753888 L14.1293145,20.1534263 C14.1293145,21.1732159 14.9560985,22 15.9758882,22 C16.9956779,22 17.822462,21.1732159 17.822462,20.1534263 L17.822462,11.0381224 L18.1418403,11.0381224 C18.6929021,11.0381224 19.1394191,10.5916054 19.1394191,10.0405437 L19.1394191,9.85826062 C19.1394191,9.30719889 18.6929021,8.86068189 18.1418403,8.86068189 Z M1.84657375,22 L1.84657375,22 C0.826784058,22 0,21.1732159 0,20.1534263 L0,8.78753888 C0,7.76736624 0.826784058,6.94096513 1.84657375,6.94096513 L1.84657375,6.94096513 C2.86636344,6.94096513 3.6931475,7.76736624 3.6931475,8.78753888 L3.6931475,20.1534263 C3.6931475,21.1732159 2.86636344,22 1.84657375,22 Z M8.92995713,22 L8.92995713,22 C7.91016744,22 7.08338338,21.1732159 7.08338338,20.1534263 L7.08338338,8.78753888 C7.08338338,7.76736624 7.91016744,6.94096513 8.92995713,6.94096513 L8.92995713,6.94096513 C9.94974682,6.94096513 10.7765309,7.76736624 10.7765309,8.78753888 L10.7765309,20.1534263 C10.7765309,21.1732159 9.94974682,22 8.92995713,22 Z M5.70737575,0 L5.40676181,0.813380888 C5.24898736,1.24113346 5.23673304,1.69569236 5.37114768,2.12842325 L5.51054064,2.57608909 C5.63959401,2.99082144 5.63384979,3.42585001 5.49369094,3.83828467 L5.16550477,4.80407874 M9.27506958,0 L8.97445565,0.813380888 C8.8166812,1.24113346 8.80442688,1.69569236 8.93884151,2.12842325 L9.07823447,2.57608909 C9.20728784,2.99082144 9.20154363,3.42585001 9.06138477,3.83828467 L8.73319861,4.80407874 M12.6621653,0 L12.3615514,0.813380888 C12.2037769,1.24113346 12.1915226,1.69569236 12.3259372,2.12842325 L12.4653302,2.57608909 C12.5943835,2.99082144 12.5886393,3.42585001 12.4484805,3.83828467 L12.1202943,4.80407874" stroke="#B49442" stroke-width="1" fill="none" stroke-miterlimit="10"></path></g></g></g></g></g></g></g></g></svg>