<svg width="32" height="31" viewBox="0 0 32 31" fill="none" xmlns="http://www.w3.org/2000/svg">
<path fill-rule="evenodd" clip-rule="evenodd" d="M9.00002 3.36563C9.57955 3.4021 10.163 3.43013 10.75 3.44952V27.1283C10.163 27.1423 9.57955 27.165 9.00002 27.1961V3.36563ZM4.25 2.86798C4.58162 2.91696 4.91498 2.96313 5.25 3.00644V27.521C4.915 27.5612 4.58164 27.6043 4.25 27.6503V2.86798ZM0 2.0663C0.166099 2.10469 0.33277 2.14235 0.5 2.17927V28.3042C0.332779 28.3395 0.166109 28.3756 0 28.4124L0 2.0663ZM32 30.7285V0C30.6422 0.536898 29.2229 1.01877 27.75 1.44059V29.2651C29.2234 29.6954 30.6429 30.1848 32 30.7285ZM24 28.3243V2.35911C22.9376 2.57715 21.8535 2.76524 20.75 2.92179V27.7397C21.8535 27.9041 22.9377 28.0995 24 28.3243ZM17 27.3083V3.32484C16.1749 3.38575 15.3412 3.42928 14.5 3.45484V27.1573C15.3412 27.1902 16.1748 27.2407 17 27.3083Z" fill="white"/>
</svg>
