<svg width="87" height="87" viewBox="0 0 87 87" fill="none" xmlns="http://www.w3.org/2000/svg">
<path d="M41.8464 69.5985C41.8464 70.6619 40.9765 71.5317 39.9132 71.5317H31.629C30.5656 71.5317 29.6958 70.6618 29.6958 69.5985C29.6958 68.5352 30.5657 67.6654 31.629 67.6654H39.9132C40.9759 67.6654 41.8464 68.5352 41.8464 69.5985ZM23.3349 67.6654H15.0507C13.9873 67.6654 13.1175 68.5352 13.1175 69.5985C13.1175 70.6619 13.9874 71.5317 15.0507 71.5317H23.3349C24.3983 71.5317 25.268 70.6618 25.268 69.5985C25.268 68.5352 24.4076 67.6654 23.3349 67.6654ZM6.76642 67.6654H3.86628V64.7652C3.86628 63.7019 2.99644 62.8321 1.93314 62.8321C0.869783 62.8321 0 63.7019 0 64.7652V69.5985C0 70.6619 0.869834 71.5317 1.93314 71.5317H6.76642C7.82977 71.5317 8.69956 70.6618 8.69956 69.5985C8.69956 68.5352 7.82972 67.6654 6.76642 67.6654ZM1.93314 58.4141C2.99649 58.4141 3.86628 57.5443 3.86628 56.481V48.1968C3.86628 47.1334 2.99644 46.2636 1.93314 46.2636C0.869783 46.2636 0 47.1335 0 48.1968V56.481C0 57.5444 0.869834 58.4141 1.93314 58.4141ZM1.93314 41.8464C2.99649 41.8464 3.86628 40.9765 3.86628 39.9132V31.629C3.86628 30.5656 2.99644 29.6958 1.93314 29.6958C0.869783 29.6958 0 30.5657 0 31.629V39.9132C0 40.9759 0.869834 41.8464 1.93314 41.8464ZM1.93314 25.2677C2.99649 25.2677 3.86628 24.3979 3.86628 23.3346V15.0503C3.86628 13.987 2.99644 13.1172 1.93314 13.1172C0.869783 13.1172 0 13.987 0 15.0503V23.3346C0 24.4073 0.869834 25.2677 1.93314 25.2677ZM6.76642 0H1.93314C0.869783 0 0 0.869835 0 1.93314V6.76642C0 7.82977 0.869834 8.69956 1.93314 8.69956C2.99649 8.69956 3.86628 7.82972 3.86628 6.76642V3.86628H6.76642C7.82977 3.86628 8.69956 2.99644 8.69956 1.93314C8.69956 0.869783 7.82972 0 6.76642 0ZM15.0507 3.86628H23.3349C24.3983 3.86628 25.268 2.99644 25.268 1.93314C25.268 0.869783 24.3982 0 23.3349 0H15.0507C13.9873 0 13.1175 0.869835 13.1175 1.93314C13.1175 2.99649 13.9874 3.86628 15.0507 3.86628ZM48.1966 3.86628H56.4808C57.5442 3.86628 58.414 2.99644 58.414 1.93314C58.414 0.869783 57.5441 0 56.4808 0H48.1966C47.1332 0 46.2635 0.869835 46.2635 1.93314C46.2635 2.99649 47.1238 3.86628 48.1966 3.86628ZM31.6186 3.86628H39.9029C40.9662 3.86628 41.836 2.99644 41.836 1.93314C41.836 0.869783 40.9662 0 39.9029 0H31.6186C30.5553 0 29.6855 0.869835 29.6855 1.93314C29.6855 2.99649 30.5553 3.86628 31.6186 3.86628ZM64.7646 3.86628H67.6647V6.76642C67.6647 7.82977 68.5345 8.69956 69.5978 8.69956C70.6612 8.69956 71.531 7.82972 71.531 6.76642V1.93314C71.531 0.869783 70.6611 0 69.5978 0H64.7646C63.7012 0 62.8314 0.869835 62.8314 1.93314C62.8314 2.99649 63.7013 3.86628 64.7646 3.86628ZM69.5978 29.6863C68.5345 29.6863 67.6647 30.5562 67.6647 31.6195V39.9037C67.6647 40.9671 68.5345 41.8369 69.5978 41.8369C70.6612 41.8369 71.531 40.967 71.531 39.9037V31.6195C71.531 30.5561 70.6611 29.6863 69.5978 29.6863ZM71.531 15.051C71.531 13.9876 70.6611 13.1179 69.5978 13.1179C68.5345 13.1179 67.6647 13.9877 67.6647 15.051V23.3352C67.6647 24.3986 68.5345 25.2684 69.5978 25.2684C70.6612 25.2684 71.531 24.3985 71.531 23.3352V15.051ZM86.9978 52.6643C86.9884 53.4572 86.4853 54.1625 85.751 54.4431L63.0536 63.0558L54.4409 85.7532C54.1604 86.4882 53.4551 86.9906 52.6621 87H52.6331C51.8502 87 51.1544 86.5361 50.8449 85.8207L27.2206 29.7546C26.9111 29.0298 27.0756 28.189 27.6359 27.6373C28.1868 27.077 29.0276 26.9125 29.7532 27.222L85.8193 50.8464C86.5435 51.1559 87.0073 51.8808 86.9978 52.6643ZM79.8639 52.5382L32.6238 32.6251L52.5369 79.8652L59.7483 60.8704C59.9513 60.3579 60.3572 59.952 60.8696 59.7491L79.8639 52.5382Z" fill="white"/>
</svg>
