<svg width="204" height="32" viewBox="0 0 204 32" fill="none" xmlns="http://www.w3.org/2000/svg">
<path d="M11.8807 28.2259C7.84031 28.2259 4.04041 24.8977 4.04041 19.7097C4.04041 14.3748 7.88841 11.4871 11.3997 11.4871C15.1034 11.4871 17.5084 13.6406 18.2299 17.3114L22.0298 16.1368C20.9235 10.8508 16.933 7.70936 11.4015 7.70936C5.19659 7.70936 0 12.7596 0 19.7097C0 27.0512 4.76904 32 11.9359 32C17.6599 32 21.8374 28.5685 23.1362 22.6952L19.4324 21.2759C18.5185 25.6319 16.3059 28.2259 11.8807 28.2259Z" fill="white"/>
<path d="M25.4356 7.70936V32H29.5722V16.6751C29.5722 13.5427 31.2557 11.4871 33.805 11.4871C36.0657 11.4871 37.4606 12.8086 37.4606 14.9621C37.4606 15.4026 37.4125 15.9899 37.3163 16.6751H41.3567C41.5491 15.892 41.6453 15.0111 41.6453 14.0811C41.6453 10.5572 39.1553 7.70936 35.4515 7.70936C33.3138 7.70936 30.5823 8.47615 29.5722 10.9723V7.70936H25.4356Z" fill="white"/>
<path d="M60.4832 23.0378C59.5693 26.366 57.4048 28.2259 53.8935 28.2259C49.8531 28.2259 46.6785 25.534 46.6304 20.4928H63.1287C63.3211 19.6118 63.4173 18.6818 63.4173 17.654C63.4173 14.6195 62.5034 12.2213 60.6275 10.4593C58.7516 8.64836 56.2967 7.70936 53.2664 7.70936C46.7729 7.70936 42.3976 13.0533 42.3976 19.7097C42.3976 27.1981 47.2931 32 53.979 32C59.2219 32 62.5515 29.1558 64.0907 24.4572L60.4832 23.0378ZM46.6304 17.4583C47.0633 13.7875 49.7088 11.4871 53.2201 11.4871C56.6833 11.4871 59.3288 13.4449 59.3288 16.773L59.2807 17.4583H46.6304Z" fill="white"/>
<path d="M64.8461 24.4572C66.1929 28.4217 69.7406 32 74.8873 32C80.034 32 84.0264 28.9655 84.0264 24.6584C84.0264 20.7919 81.3809 18.4915 76.0417 17.7573C71.5684 17.1211 69.933 16.2401 69.933 14.2334C69.933 12.4225 71.857 11.2478 74.3582 11.2478C76.8113 11.2478 78.591 12.4225 79.3606 14.7718L82.5834 12.9609C81.1884 9.68162 78.5688 7.70936 74.2879 7.70936C71.931 7.70936 70.0292 8.40908 68.4419 9.63267C66.9027 10.8073 66.1331 12.3246 66.1331 14.1845C66.1331 17.8552 68.7305 20.0577 73.9734 20.8408C78.591 21.4771 79.9859 22.7007 79.9859 24.9031C79.9859 26.9098 78.11 28.2803 75.0797 28.2803C71.6165 28.2803 69.7077 26.2156 68.409 22.9363L64.8461 24.4572Z" fill="white"/>
<path d="M97.0987 28.2259C93.0583 28.2259 89.2584 24.8977 89.2584 19.7097C89.2584 14.3748 93.1064 11.4871 96.6177 11.4871C100.321 11.4871 102.726 13.6406 103.448 17.3114L107.248 16.1368C106.141 10.8508 102.266 7.70936 96.7346 7.70936C90.5297 7.70936 85.218 12.7596 85.218 19.7097C85.218 27.0512 90.1022 32 97.2691 32C102.993 32 107.055 28.5685 108.354 22.6952L104.65 21.2759C103.736 25.6319 101.524 28.2259 97.0987 28.2259Z" fill="white"/>
<path d="M127.344 23.0378C126.43 26.366 124.266 28.2259 120.755 28.2259C116.714 28.2259 113.54 25.534 113.491 20.4928H129.99C130.182 19.6118 130.278 18.6818 130.278 17.654C130.278 14.6195 129.364 12.2213 127.489 10.4593C125.613 8.64836 123.102 7.70936 120.072 7.70936C113.579 7.70936 109.259 13.0533 109.259 19.7097C109.259 27.1981 114.099 32 120.785 32C126.028 32 129.413 29.1558 130.952 24.4572L127.344 23.0378ZM113.491 17.4583C113.924 13.7875 116.57 11.4871 120.081 11.4871C123.544 11.4871 126.19 13.4449 126.19 16.773L126.142 17.4583H113.491Z" fill="white"/>
<path d="M137.516 32V18.7308C137.516 14.2769 140.209 11.4871 143.672 11.4871C146.943 11.4871 148.867 13.5917 148.867 17.654V32H153.052V16.3815C153.052 10.9487 149.871 7.70936 145.013 7.70936C141.79 7.70936 139.103 9.33358 137.516 12.0255V7.70936H133.379V32H137.516Z" fill="white"/>
<path d="M155.696 20.0033C155.696 27.1002 160.09 32 166.391 32C169.854 32 172.723 30.0858 174.262 27.296V32H178.255V0H174.07V12.466C172.579 9.57829 169.724 7.70936 166.213 7.70936C160.008 7.70936 155.696 12.8086 155.696 20.0033ZM174.262 19.9544C174.262 25.1424 170.607 28.1769 167.047 28.1769C163.296 28.1769 159.832 25.1914 159.832 19.9544C159.832 14.7663 163.344 11.585 167.047 11.585C170.607 11.585 174.262 14.8153 174.262 19.9544Z" fill="white"/>
<path d="M180.864 19.8565C180.864 26.7086 185.522 32 192.4 32C199.231 32 204 26.7086 204 19.8565C204 13.0044 199.327 7.70936 192.4 7.70936C185.522 7.70936 180.864 13.0044 180.864 19.8565ZM199.719 19.8565C199.719 24.7509 196.689 28.128 192.408 28.128C188.175 28.128 185.097 24.7019 185.097 19.8565C185.097 15.0111 188.175 11.585 192.408 11.585C194.572 11.585 196.304 12.3681 197.651 13.9343C199.046 15.4516 199.719 17.4583 199.719 19.8565Z" fill="white"/>
</svg>
